name Walk7.mot
datacolumns 19
datarows 25
range 1.25600000 1.28000000
endheader

                time	   L_ground_force_vx	   L_ground_force_vy	   L_ground_force_vz	   L_ground_force_px	   L_ground_force_py	   L_ground_force_pz	   R_ground_force_vx	   R_ground_force_vy	   R_ground_force_vz	   R_ground_force_px	   R_ground_force_py	   R_ground_force_pz	   L_ground_torque_x	   L_ground_torque_y	   L_ground_torque_z	   R_ground_torque_x	   R_ground_torque_y	   R_ground_torque_z	
          1.25600000	         -1.70967069	         54.27577630	         -6.14831129	          0.00121063	          0.00000000	          0.00039124	         -0.00000000	          0.00000000	         -0.00000000	          0.00000000	          0.00000000	          0.00000000	          0.00000000	          0.06482365	          0.00000000	          0.00000000	          0.00000000	          0.00000000	
          1.25700000	         -2.55026516	         61.90455865	         -6.42505704	         -0.01861901	          0.00000000	         -0.00074880	         -0.00000000	          0.00000000	         -0.00000000	          0.00000000	          0.00000000	          0.00000000	          0.00000000	          0.07729918	          0.00000000	          0.00000000	          0.00000000	          0.00000000	
          1.25800000	         -3.41189926	         69.64088249	         -6.70334142	         -0.03836784	          0.00000000	         -0.00188936	         -0.00000000	          0.00000000	         -0.00000000	          0.00000000	          0.00000000	          0.00000000	          0.00000000	          0.09020408	          0.00000000	          0.00000000	          0.00000000	          0.00000000	
          1.25900000	         -4.29372973	         77.46882819	         -6.98213380	         -0.05796843	          0.00000000	         -0.00302697	         -0.00000000	          0.00000000	         -0.00000000	          0.00000000	          0.00000000	          0.00000000	          0.00000000	          0.10353432	          0.00000000	          0.00000000	          0.00000000	          0.00000000	
          1.26000000	         -5.19489906	         85.37157781	         -7.26029333	         -0.07735763	          0.00000000	         -0.00415841	         -0.00000000	          0.00000000	         -0.00000000	          0.00000000	          0.00000000	          0.00000000	          0.00000000	          0.11728402	          0.00000000	          0.00000000	          0.00000000	          0.00000000	
          1.26100000	         -6.11455421	         93.33148554	         -7.53656118	         -0.09647800	          0.00000000	         -0.00528078	         -0.00000000	          0.00000000	         -0.00000000	          0.00000000	          0.00000000	          0.00000000	          0.00000000	          0.13144520	          0.00000000	          0.00000000	          0.00000000	          0.00000000	
          1.26200000	         -7.05186791	        101.33021437	         -7.80955421	         -0.11527803	          0.00000000	         -0.00639151	         -0.00000000	          0.00000000	         -0.00000000	          0.00000000	          0.00000000	          0.00000000	          0.00000000	          0.14600801	          0.00000000	          0.00000000	          0.00000000	          0.00000000	
          1.26300000	         -8.00606145	        109.34895303	         -8.07776121	         -0.13371175	          0.00000000	         -0.00748834	         -0.00000000	          0.00000000	         -0.00000000	          0.00000000	          0.00000000	          0.00000000	          0.00000000	          0.16096124	          0.00000000	          0.00000000	          0.00000000	          0.00000000	
          1.26400000	         -8.97642689	        117.36872127	         -8.33954277	         -0.15173846	          0.00000000	         -0.00856930	         -0.00000000	          0.00000000	         -0.00000000	          0.00000000	          0.00000000	          0.00000000	          0.00000000	          0.17629315	          0.00000000	          0.00000000	          0.00000000	          0.00000000	
          1.26500000	         -9.96234485	        125.37075451	         -8.59313636	         -0.16932244	          0.00000000	         -0.00963269	         -0.00000000	          0.00000000	         -0.00000000	         -0.00000000	          0.00000000	         -0.00000000	          0.00000000	          0.19199233	          0.00000000	          0.00000000	          0.00000000	          0.00000000	
          1.26600000	        -10.96329427	        133.33694106	         -8.83666786	         -0.18643266	          0.00000000	         -0.01067709	         -0.00000000	          0.00000000	         -0.00000000	         -0.00000000	          0.00000000	         -0.00000000	          0.00000000	          0.20804855	          0.00000000	          0.00000000	          0.00000000	          0.00000000	
          1.26700000	        -11.97885148	        141.25026791	         -9.06817033	         -0.20304249	          0.00000000	         -0.01170129	         -0.00000000	          0.00000000	         -0.00000000	         -0.00000000	          0.00000000	         -0.00000000	          0.00000000	          0.22445325	          0.00000000	          0.00000000	          0.00000000	          0.00000000	
          1.26800000	        -13.00867849	        149.09522388	         -9.28560980	         -0.21912942	          0.00000000	         -0.01270431	         -0.00000000	          0.00000000	         -0.00000000	         -0.00000000	          0.00000000	         -0.00000000	          0.00000000	          0.24119971	          0.00000000	          0.00000000	          0.00000000	          0.00000000	
          1.26900000	        -14.05250223	        156.85811328	         -9.48691660	         -0.23467480	          0.00000000	         -0.01368540	         -0.00000000	          0.00000000	         -0.00000000	         -0.00000000	          0.00000000	         -0.00000000	          0.00000000	          0.25828278	          0.00000000	          0.00000000	          0.00000000	          0.00000000	
          1.27000000	        -15.11008857	        164.52724942	         -9.67001980	         -0.24966360	          0.00000000	         -0.01464395	         -0.00000000	          0.00000000	         -0.00000000	         -0.00000000	          0.00000000	         -0.00000000	          0.00000000	          0.27569843	          0.00000000	          0.00000000	          0.00000000	          0.00000000	
          1.27100000	        -16.18121521	        172.09301812	         -9.83288204	         -0.26408411	          0.00000000	         -0.01557954	         -0.00000000	         -0.00000000	         -0.00000000	         -0.00000000	          0.00000000	         -0.00000000	          0.00000000	          0.29344318	          0.00000000	          0.00000000	          0.00000000	          0.00000000	
          1.27200000	        -17.26564695	        179.54782100	         -9.97353178	         -0.27792778	          0.00000000	         -0.01649191	         -0.00000000	         -0.00000000	         -0.00000000	         -0.00000000	          0.00000000	         -0.00000000	          0.00000000	          0.31151360	          0.00000000	          0.00000000	          0.00000000	          0.00000000	
          1.27300000	        -18.36311563	        186.88592305	        -10.09009108	         -0.29118893	          0.00000000	         -0.01738091	         -0.00000000	         -0.00000000	         -0.00000000	         -0.00000000	          0.00000000	         -0.00000000	          0.00000000	          0.32990591	          0.00000000	          0.00000000	          0.00000000	          0.00000000	
          1.27400000	        -19.47330547	        194.10323596	        -10.18079782	         -0.30386452	          0.00000000	         -0.01824652	         -0.00000000	         -0.00000000	         -0.00000000	         -0.00000000	          0.00000000	         -0.00000000	          0.00000000	          0.34861563	          0.00000000	          0.00000000	          0.00000000	          0.00000000	
          1.27500000	        -20.59584328	        201.19706941	        -10.24402209	         -0.31595401	          0.00000000	         -0.01908883	         -0.00000000	         -0.00000000	         -0.00000000	         -0.00000000	          0.00000000	         -0.00000000	          0.00000000	          0.36763723	          0.00000000	          0.00000000	          0.00000000	          0.00000000	
          1.27600000	        -21.73029268	        208.16587749	        -10.27827743	         -0.32745907	          0.00000000	         -0.01990801	         -0.00000000	         -0.00000000	         -0.00000000	         -0.00000000	          0.00000000	         -0.00000000	          0.00000000	          0.38696373	          0.00000000	          0.00000000	          0.00000000	          0.00000000	
          1.27700000	        -22.87615077	        215.00902100	        -10.28222784	         -0.33838343	          0.00000000	         -0.02070434	         -0.00000000	         -0.00000000	         -0.00000000	         -0.00000000	          0.00000000	         -0.00000000	          0.00000000	          0.40658624	          0.00000000	          0.00000000	          0.00000000	          0.00000000	
          1.27800000	        -24.03284649	        221.72655893	        -10.25469160	         -0.34873270	          0.00000000	         -0.02147812	         -0.00000000	         -0.00000000	         -0.00000000	         -0.00000000	          0.00000000	         -0.00000000	          0.00000000	          0.42649358	          0.00000000	          0.00000000	          0.00000000	          0.00000000	
          1.27900000	        -25.19973971	        228.31907678	        -10.19464274	         -0.35851417	          0.00000000	         -0.02222976	         -0.00000000	         -0.00000000	         -0.00000000	         -0.00000000	          0.00000000	         -0.00000000	          0.00000000	          0.44667192	          0.00000000	          0.00000000	          0.00000000	          0.00000000	
          1.28000000	        -26.37612096	        234.78755410	        -10.10121105	         -0.36773664	          0.00000000	         -0.02295967	         -0.00000000	         -0.00000001	         -0.00000000	         -0.00000000	          0.00000000	         -0.00000000	          0.00000000	          0.46710461	          0.00000000	          0.00000000	          0.00000000	          0.00000000	
